<?xml version="1.0" standalone="no"?>
<!DOCTYPE svg PUBLIC "-//W3C//DTD SVG 20010904//EN"
 "http://www.w3.org/TR/2001/REC-SVG-20010904/DTD/svg10.dtd">
<svg version="1.0" xmlns="http://www.w3.org/2000/svg"
 width="1130.000000pt" height="1280.000000pt" viewBox="0 0 1130.000000 1280.000000"
 preserveAspectRatio="xMidYMid meet">
<g transform="translate(0.000000,1280.000000) scale(0.100000,-0.100000)"
fill="#000000" stroke="none">
<path d="M5780 12777 c-225 -75 -418 -293 -606 -682 -124 -257 -209 -501 -288
-818 -197 -793 -205 -1529 -22 -2164 151 -524 413 -910 723 -1067 35 -17 54
-34 57 -49 3 -12 9 -215 15 -452 6 -236 16 -639 23 -895 10 -410 9 -505 -6
-800 -38 -757 -88 -1507 -166 -2520 -54 -693 -61 -773 -80 -975 -63 -656 -76
-824 -91 -1235 -12 -321 -9 -458 15 -580 54 -282 219 -457 489 -520 108 -25
135 -25 228 -2 236 59 368 196 430 447 37 146 36 329 -5 850 -34 443 -210
2706 -261 3375 -27 354 -30 378 -80 840 -68 622 -85 938 -66 1240 6 102 16
255 21 340 6 85 12 304 15 485 3 182 8 353 11 381 l5 52 77 45 c391 229 682
806 787 1557 26 180 31 614 11 835 -92 1014 -466 1963 -884 2242 -67 45 -201
93 -254 92 -18 0 -62 -10 -98 -22z"/>
<path d="M10495 12636 c-39 -17 -98 -83 -128 -143 -165 -330 -227 -1119 -227
-2908 0 -1495 49 -2209 178 -2570 33 -94 40 -269 18 -496 -10 -100 -16 -264
-16 -410 0 -433 -43 -1895 -75 -2554 -3 -60 -10 -207 -15 -325 -38 -795 -81
-1529 -125 -2147 -29 -396 -30 -472 -10 -568 39 -181 147 -286 355 -342 94
-26 261 -23 363 5 175 49 309 147 370 271 30 61 32 74 35 187 3 87 -2 159 -17
255 -21 142 -28 231 -61 774 -21 338 -47 760 -75 1200 -33 512 -84 1400 -109
1915 -26 514 -34 693 -61 1400 -3 80 -10 290 -15 467 l-9 322 68 133 c169 333
279 827 325 1463 46 638 45 883 -9 1600 -87 1146 -318 2138 -559 2402 -72 80
-131 100 -201 69z"/>
<path d="M601 12591 c-47 -47 -70 -257 -69 -621 1 -334 -19 -1957 -28 -2230
l-6 -204 -33 -33 c-23 -23 -42 -33 -64 -33 -40 0 -87 24 -103 53 -10 18 -13
317 -13 1497 0 1553 1 1518 -42 1534 -22 9 -51 -11 -70 -47 -12 -24 -17 -64
-19 -162 -8 -320 -123 -2625 -144 -2877 -15 -175 -12 -287 10 -416 51 -290
144 -479 316 -641 70 -66 106 -91 190 -132 120 -59 116 -53 134 -225 20 -180
11 -1029 -15 -1569 -3 -60 -10 -207 -15 -325 -36 -775 -128 -2250 -210 -3380
-11 -151 -27 -365 -35 -475 -8 -110 -31 -418 -51 -685 -51 -684 -44 -862 40
-1070 34 -83 104 -186 169 -248 121 -113 233 -158 376 -149 105 6 175 31 267
96 81 57 130 108 188 199 80 124 117 246 136 442 21 218 -11 577 -205 2285
-132 1165 -186 1791 -216 2510 -12 282 -6 2006 7 2381 l7 171 56 28 c209 102
388 320 474 578 47 139 61 237 59 407 -1 85 -35 847 -76 1693 l-74 1539 -28
29 c-38 40 -61 37 -82 -8 -16 -35 -17 -152 -22 -1501 l-5 -1464 -33 -29 c-47
-43 -102 -41 -148 5 l-34 34 0 194 c0 278 -19 1863 -28 2333 -8 389 -8 401
-31 448 -41 85 -101 72 -120 -27 -5 -28 -12 -361 -15 -741 -6 -789 -23 -1886
-32 -2084 -6 -131 -7 -136 -34 -163 -41 -40 -107 -40 -152 1 l-33 29 -6 434
c-4 238 -12 807 -18 1263 -6 457 -16 885 -21 953 -6 68 -10 164 -10 215 0 99
-13 161 -38 190 -19 22 -28 21 -51 -2z"/>
</g>
</svg>
